<?xml version="1.0" encoding="UTF-8"?>
<svg id="Capa_1" data-name="Capa 1" xmlns="http://www.w3.org/2000/svg" viewBox="0 0 1592.41 1157.35">
  <defs>
    <style>
      .cls-1 {
        fill: #0b12a3;
      }

      .cls-1, .cls-2, .cls-3, .cls-4, .cls-5, .cls-6 {
        stroke-width: 0px;
      }

      .cls-2 {
        fill: #7370f0;
      }

      .cls-7, .cls-8, .cls-9, .cls-10, .cls-11 {
        stroke-miterlimit: 10;
        stroke-width: 2px;
      }

      .cls-7, .cls-9, .cls-10 {
        fill: none;
      }

      .cls-7, .cls-9, .cls-10, .cls-11 {
        stroke-linecap: round;
      }

      .cls-7, .cls-11 {
        stroke: #000;
      }

      .cls-3 {
        fill: #a3a1f6;
      }

      .cls-4, .cls-8 {
        fill: #000;
      }

      .cls-8, .cls-10 {
        stroke: #fff;
      }

      .cls-9 {
        stroke: #332ee8;
      }

      .cls-5, .cls-11 {
        fill: #fff;
      }

      .cls-6 {
        fill: #4b46ea;
      }
    </style>
  </defs>
  <g>
    <g>
      <path class="cls-3" d="M761.18,718.12l-57.2,125.11c-130.58,23.97-303.83-24.23-303.83-24.23l-74.62,22.64c-45.33,12.65-99.56,14.11-130.62,13.68-17.26-.24-42.96-4.36-57.44-24.18-5.09-6.96-11.06-14.15-14.83-21.48-22.08-42.91-43.2-115.73-39.57-169.2,5.32-78.65,70.63-58.62,70.63-58.62,75.58,18.29,117.32,126.47,123.89,144.76.6,1.69.94,8.92.94,8.92,0,0,129.64-63.11,196.24-40.47,66.64,22.64,182.46,60.44,210.51,44,68.02-39.86,75.89-20.95,75.89-20.95Z"/>
      <g>
        <path class="cls-10" d="M182.74,791.18s29.6,20.77,73.04,10.34c35.35-8.49,143.59-38.07,172.38-45.96,4.51-1.23,9.28-.85,13.53,1.11,28.17,12.97,143.28,61.71,231.77,35.81"/>
        <path class="cls-10" d="M682.52,772.56s-17.48,32.68-15.2,72.97"/>
      </g>
      <path class="cls-6" d="M274.18,711.97c-24.31,28.68-81.81,77.84-167.66,100.56-24.9-48.4-63.26-133.75-59.17-194.06,6-88.71,79.67-66.13,79.67-66.13,85.26,20.63,139.75,138.99,147.16,159.62Z"/>
      <path class="cls-4" d="M266.29,745.49c-2.22,0-4.31-1.37-5.11-3.59-1.02-2.82.44-5.94,3.26-6.96l115.29-41.74,21.81-108.04c.59-2.94,3.46-4.86,6.4-4.25,2.94.59,4.85,3.46,4.25,6.4l-23.01,114.03-121.04,43.82c-.61.22-1.24.33-1.85.33Z"/>
      <g>
        <path class="cls-11" d="M166.81,465.04c-12.61-8.88-36.78-5.99-48.76,10.07-7.39,9.91-11.79,26.77-7.98,38.56l-18.34,38.99s30.96,11.96,53.68,5.66c0,0-2.92-9.89,1.22-19.1,3.2.87,6.39.89,9.18-.69,10.85-6.14,13.39-20.73,13.39-20.73,0,0,5.71,2.33,6.93.63,1.23-1.71-2.83-10.37-.55-17.05,2.28-6.69,3.84-27.47-8.77-36.34Z"/>
        <path class="cls-4" d="M110.54,521.16c-2.43,3.5-7.8,1.85-7.95-2.4-.12-3.46-.75-7.74-2.21-13-5.75-20.78-8.44-55.61,28.79-59.48,42.55-4.43,51.86,20.78,46.13,29.22-1.24,1.82-3.68,2.36-5.62,1.31-5.96-3.22-22.52-10.67-41.05-5.96-1.7.43-2.93,1.92-3.13,3.67-.93,8.07-4.41,31.43-14.97,46.65Z"/>
        <path class="cls-4" d="M108.65,522.79s15.78-6.08,22.64-22.69l6.66,1.03s8.87-4.31,8.11-24.38c0,0,29.66,8.94,39.85-7.01,10.2-15.95-27.13-18.71-46.55-16.05-19.42,2.65-36.6,52.48-30.71,69.1Z"/>
        <path class="cls-5" d="M139.66,502.76s.99-11.99-8.4-10.97c-9.39,1.02-7.88,20-.74,20.17,7.13.17,9.14-9.2,9.14-9.2Z"/>
        <path class="cls-11" d="M136.26,503.92s1.55-7.46-5.97-6.61"/>
        <path class="cls-4" d="M164.09,504.93c.09,1.66.83,2.97,1.66,2.93.83-.04,1.43-1.42,1.35-3.09-.09-1.66-.83-2.97-1.66-2.93s-1.43,1.42-1.35,3.09Z"/>
        <path class="cls-4" d="M161.51,498.84s2.58-.87,5.95-.62c3.37.25,2.74-3.81-1.73-3.06-4.47.76-5.78,3.87-4.22,3.68Z"/>
        <path class="cls-4" d="M147.49,537.59s-13.9-4.38-14.86-2.47c-.96,1.91,9.79,17.16,12.08,14.71.22-.24-.39-8.5,2.78-12.23Z"/>
        <path class="cls-11" d="M160.49,526.7s.93,2.87,3.66,3.12"/>
      </g>
      <g>
        <path class="cls-11" d="M361.3,643.46s-17.49-11.38-34.21-10.07c7.12-4.45,16.7-10.51,16.77-12.31.1-2.49-8.43-2.19-19.82,1.26-5.35,1.62-11.92,7.37-17.38,13.01-3.71,3.83-8.11,6.88-12.88,9.14-6.33,3-12.02,5.77-12.82,6.41-43.51,18.99-82.38,40.33-82.38,40.33-38.48-54.73-63.25-72.47-63.25-72.47l-61.02,27.36s45.9,123.09,97.19,136.61c51.29,13.52,135.83-86.51,135.83-86.51,0,0,20.21-23.87,33.33-26.84,13.13-2.98,21.3-7.19,16.98-9.01-4.32-1.82-11.71-3.43-11.71-3.43,0,0,13.71.9,12.19-2.84-1.32-3.25-9.65-6.2-11.77-6.9-.07-.02-.05-.13.02-.12,3.16.2,19.71,1.05,14.91-3.61Z"/>
        <path class="cls-11" d="M90.07,574.95s-59.44,6.55-9.28,116.15c-.39.93,56.44-16.54,102.29-45.66,0,0-47.66-77.35-93.01-70.49Z"/>
        <path class="cls-11" d="M182.62,702.14s10.47-8.44,15.98-10.9"/>
        <path class="cls-11" d="M346.4,647.07s-13.72-6.94-29.52,1.88"/>
        <path class="cls-11" d="M345.95,656.94s-12.75-1.83-23.5,3.37"/>
        <path class="cls-11" d="M327.09,633.39s-6.68.67-14.88,8.77"/>
        <path class="cls-4" d="M97.31,697.95s42.49-19.44,73.46-43.21l-.92-.39s-61.95,30.72-77.32,33.47l4.79,10.13Z"/>
      </g>
      <path class="cls-4" d="M273.7,652.72l36.84,41.44c1.14,1.29,3.15,1.31,4.33.05l5.02-5.38c1.05-1.12,1.05-2.86,0-3.98l-36.13-39.09c-.9-.97-2.34-1.22-3.52-.6l-5.73,3.03c-1.68.89-2.08,3.11-.82,4.53Z"/>
      <path class="cls-1" d="M278.67,665.98c0,5.83,6.15,10.55,13.74,10.55s13.74-4.73,13.74-10.55-6.15-10.55-13.74-10.55-13.74,4.73-13.74,10.55Z"/>
    </g>
    <path class="cls-7" d="M177.39,481.82s12.63-6.1,9.58-17.42"/>
  </g>
  <path class="cls-3" d="M929.61.68h378.41c36.26,0,65.69,29.44,65.69,65.69v447.9h-444.11V.68h0Z"/>
  <g>
    <rect class="cls-11" x="1039.15" y="735.08" width="234.2" height="420.64"/>
    <rect class="cls-7" x="999.91" y="733.58" width="234.2" height="422.01"/>
    <path class="cls-4" d="M1297.22,769.96h-275.12c-23.23,0-42.06-18.83-42.06-42.06h0c0-23.23,18.83-42.06,42.06-42.06h275.12c23.23,0,42.06,18.83,42.06,42.06h0c0,23.23-18.83,42.06-42.06,42.06Z"/>
    <path class="cls-3" d="M1301.56,1040.87h-162.29s-.12-24.98,2.14-61.56c4.27-68.45,16.96-177.48,54.71-239.36,0,0-162.29,13.05-151.61-107.77,2.58-29.13,13.34-46.53,28.24-56.2,46.98-30.5,134.77,15.87,134.77,15.87,0,0,125.78-1.33,165.23,40.89,62.17,66.6-45.12,231.63-107.94,306.24,0,0-10.48,13.86-10.23,31.31.04.24.04.52.04.77.36,11.68,5.6,24.86,22.04,36.62,41.5,29.61,24.9,33.2,24.9,33.2Z"/>
    <path class="cls-3" d="M1247.62,1040.87h-152.82c-5.52,0-10.15-4.15-10.84-9.63-1.17-9.51-2.7-25.62-3.1-46.41-.04-1.61-.08-3.26-.16-4.92-2.26-55.76-24.62-140.81,19.54-222.28,3.91-7.21-1.05-16.04-9.27-16.2-42.38-.85-108.82-14.14-100.4-109.27,5.4-61.08,44.68-66.16,82.19-56.2,30.94,8.1,60.68,26.47,69.3,32.03,1.65,1.09,3.55,1.65,5.48,1.73,15.55.64,55.64,6.69,92.55,42.51,41.46,40.29,1.17,213.25-61.6,287.87,0,0,17.77,14.1,22.08,32.63.24.97.4,1.93.56,2.94,1.49,10.43,7.33,21.76,21.64,31.99,41.46,29.61,24.86,33.2,24.86,33.2Z"/>
    <path class="cls-11" d="M1389.17,581.14s-25.37-45.77-87.56-55.64c-52.32-8.31-54.78-59.32-67.13-83.32-4.53-19.03-20.66-48.71-31.71-57.08-31.18-23.63-98.59-25.48-123.64-28.44-70.1-8.29-114.94-9.94-161.43,98.26-7.95,18.51-5.17,81.5-1.57,99.25,13.94,68.81,60.52,36.14,60.52,36.14,0,0,45.54,5.91,115.05,7.23,67.78,1.28,112.64,7.19,165-13.49,0,0-68.25,25.7-75.03,0l207.52-2.89Z"/>
    <path class="cls-11" d="M1152.74,571.81s20.55-8.22,19.34,7.01"/>
    <path class="cls-10" d="M1153.03,465.78s11.74,19.65,6.37,41.13c-5.37,21.48-18.23,59.67-14.17,82.03"/>
    <path class="cls-11" d="M1109.69,550.41s-97.76-45.01-141.45-24.03"/>
    <path class="cls-11" d="M1025.47,476.27s-14.48,11.88-22.47,42.92"/>
    <path class="cls-11" d="M1088.6,586.83s1.63-29.37,22.03-36.71c0,0,32.46.29,57.81-8.37,25.36-8.66,38.96,40.82,38.96,40.82,0,0-4.58,5-15.46-5.86-2.14-2.13-5.74-.05-5.03,2.88l1.32,5.45"/>
    <path class="cls-11" d="M1153,555.22s10.63-.09,16.91-1.3,18.14,18.71,18.14,18.71"/>
    <path class="cls-7" d="M1178.42,602.19c43.84,7.29,90.41,24.54,107.66,46.96,45.36,58.96-22.81,207.22-70.84,290.69,0,0-10.56,13.94-10.24,31.48"/>
    <line class="cls-7" x1="1272.18" y1="1041.78" x2="1000.17" y2="1041.78"/>
    <path class="cls-11" d="M1128.17,354.44c-2.46,5.1-5.83,16.7-6.06,23.18-.1,2.82-5.5,12.41-21.77,5.61-19.63-8.21-21.15-26.6-21.15-26.6,12.38-18.87,18.58-48.03,18.58-48.03"/>
    <path class="cls-7" d="M1051.15,605.76s-15.74,44.98,41.61,65.22c36.36,12.83,67.23,23.19,84.95,29.06,8.2,2.71,11.9,12.19,7.7,19.73-22.83,40.98-74.67,118.71-58.01,263.79"/>
    <path class="cls-4" d="M1301.56,1042.48h-206.77c-5.52,0-10.15-4.24-10.84-9.85-1.17-9.73-2.7-26.21-3.1-47.47-.04-1.65-.08-3.34-.16-5.03,22.68.87,43.23.45,60.72-.62,29.77-1.73,50.85-5.19,59.15-6.72,2.58-.49,3.91-.78,3.91-.78,23.97,3.63,40.33,1.15,50.12-1.73.04.25.04.54.04.78.36,11.95,9.55,24.26,25.99,36.3,41.5,30.29,20.94,35.12,20.94,35.12Z"/>
    <path class="cls-10" d="M1205,971.33c.22,11.83,5.39,25.3,22.09,37.23,41.46,29.62,24.88,33.17,24.88,33.17"/>
    <path class="cls-10" d="M1251.56,626.48s-24.34,66.26,45.3,89.92"/>
    <path class="cls-10" d="M1349.59,621.07s-25.02,50.03,36.51,89.25"/>
    <path class="cls-2" d="M1169.4,293.47s14.4-27.6-6.69-47.61c-7.47-7.09-24.99-11.5-42.11-9.93-31.2,2.86-61.09,25.59-26.4,88.25l75.2-30.71Z"/>
    <path class="cls-5" d="M1156.12,284.16c11.06-.96,15.09,3.34,10.8,16.53-2.77,8.51-2.79,10.88-5.81,24.36-6.47,28.83-30.15,37.7-48.71,17.9-5.35-5.7-15.41,7.91-17.79,2.73-6.03-13.09,3.4-44.93,14.41-66.2,11.28-21.78,38.47-21.52,38.47-21.52,0,0-8.2,27.65,8.63,26.19Z"/>
    <path class="cls-4" d="M1160.06,309.24c-.97,2.01-2.5,3.22-3.41,2.69-.91-.53-.86-2.59.11-4.6.97-2.01,2.5-3.22,3.41-2.69.91.53.86,2.59-.11,4.6Z"/>
    <path class="cls-4" d="M1135.6,300.45c-.49,2.18-1.73,3.82-2.77,3.66-1.04-.16-1.48-2.07-.99-4.25.49-2.18,1.73-3.82,2.77-3.66,1.04.16,1.48,2.07.99,4.25Z"/>
    <path class="cls-4" d="M1128.55,353.15s-11.37-3.64-19.64-16.32c-8.26-12.68-4.67,24.56,13.83,34.05,0,0,1.08-9.74,5.8-17.73Z"/>
    <path class="cls-4" d="M1158.65,296.51s4.07,3.59,8.46,6.44c4.95,3.21-.66-13.95-8.46-6.44Z"/>
    <path class="cls-4" d="M1142.37,292.78s-12.74.18-13.76-.4c-3-1.7,9.55-10.77,13.76.4Z"/>
    <path class="cls-5" d="M1107.62,298.53s-.6-13.59-7.64-14.9c-14.24-2.65-13.59,22.98,1.17,26.35,14.76,3.38,6.47-11.46,6.47-11.46Z"/>
    <path class="cls-7" d="M1101.83,298.77s.65-6.14-4.14-8.2"/>
    <path class="cls-6" d="M1105.05,293.28s6.03,8.45,11.58-7.24c2.99-8.44,22.7-6,28.86-16.85,21.87-38.51-46.2-15.48-40.44,24.09Z"/>
    <path class="cls-7" d="M1168.25,293.52c-5.18,49.64-26,68.16-43.39,58.7"/>
    <path class="cls-7" d="M1128.75,328.21s-4.06,5.46,3.5,10.47"/>
    <path class="cls-2" d="M1120.87,260.72s32.32-25.14,51.33-11.88c16.43,11.46-2.25,41.24-2.25,41.24"/>
    <path class="cls-2" d="M1164.28,253.12s-.44-15.83-37.63-22.55c-37.19-6.72-54.69,31.67-42.44,57.58"/>
    <g>
      <path class="cls-7" d="M1119.47,298.03c-1.02,4.9,4.02,10.1,11.25,11.6,7.23,1.51,13.93-1.24,14.95-6.14,1.02-4.9-4.02-10.1-11.25-11.6-7.23-1.51-13.93,1.24-14.95,6.15Z"/>
      <path class="cls-7" d="M1149.94,307.09c-1.02,4.9,4.02,10.1,11.25,11.6s13.93-1.24,14.95-6.15-4.02-10.1-11.25-11.6-13.93,1.24-14.95,6.14Z"/>
      <path class="cls-7" d="M1089.36,293.28s-1.45-11.58,10.38-10.13c11.82,1.45,19.73,14.88,19.73,14.88"/>
      <line class="cls-7" x1="1145.67" y1="303.49" x2="1150.54" y2="304.89"/>
    </g>
    <path class="cls-7" d="M1180.17,444.1s10.28,26.06,6.13,58.48c-4.16,32.42-3.34,38.43-3.34,38.43"/>
    <path class="cls-7" d="M1193.89,550.25s4.74-5.47,11.66,1.09c6.92,6.56,5.47,19.68,5.47,19.68"/>
    <path class="cls-10" d="M1082.27,1006.75s43.31-4.9,47.83,36.9"/>
    <path class="cls-10" d="M1227.09,1008.55c12.09-6.51,24.47-24.24,12.17-22.53-12.3,1.71-13.97,20.93-13.97,20.93"/>
    <path class="cls-10" d="M1258.73,1014.72s-21.6-8.44-30.48-6.55"/>
    <path class="cls-4" d="M1185.94,468.45c-.47-2,38.23,46.22,34.8,104.98l-7.71,1.73s-.29-21.81-9.31-25.88c-9.01-4.07-11.05,3.2-11.05,3.2l-10.18-9.01s8.92-51.45,3.44-75.02Z"/>
    <g>
      <g>
        <path class="cls-4" d="M1250.51,581.93h250.43c4.01,0,7.4-2.99,7.9-6.97l19.33-154.62c.59-4.75-3.11-8.94-7.9-8.94h-250.43c-4.01,0-7.4,2.99-7.9,6.97l-19.33,154.62c-.59,4.75,3.11,8.94,7.9,8.94Z"/>
        <path class="cls-4" d="M1288.57,571.85h-172.75c-2.83,0-5.12,2.29-5.12,5.12h0c0,2.83,2.29,5.12,5.12,5.12h172.75c2.83,0,5.12-2.29,5.12-5.12h0c0-2.83-2.29-5.12-5.12-5.12Z"/>
      </g>
      <path class="cls-8" d="M1240.94,543.82s79.82,10.27,112.77-53.79c32.95-64.06,64.26-13.58,102.5-8.24,38.82,5.42,73.76-45,73.76-45"/>
    </g>
  </g>
  <g>
    <path class="cls-11" d="M875.84,162.21c0,9.07,7.35,16.42,16.42,16.42s16.42-7.35,16.42-16.42-7.35-16.42-16.42-16.42-16.42,7.35-16.42,16.42Z"/>
    <line class="cls-11" x1="893.02" y1="146.02" x2="893.02" y2="1"/>
    <rect class="cls-11" x="877.57" y="49.96" width="30.34" height="84.63" rx="4.17" ry="4.17"/>
    <path class="cls-4" d="M1075.35,162.27h-360.19c11.81-16.65,87.92-38.67,180.07-38.67s168.31,22.01,180.12,38.67Z"/>
  </g>
  <g>
    <rect class="cls-2" x="90.98" y="935.95" width="106.57" height="38.3"/>
    <rect class="cls-2" x="246.19" y="994.58" width="106.57" height="38.3"/>
    <line class="cls-11" x1="92.48" y1="983.76" x2="353.29" y2="983.76"/>
    <line class="cls-11" x1="247.19" y1="1043.48" x2="499.16" y2="1043.48"/>
  </g>
  <g>
    <g>
      <path class="cls-3" d="M1506.28,942.05s11.72-14.07,39.08-7.03c27.35,7.03-49.23,89.09-66.43,99.25-17.19,10.16,4.69-65.65,27.35-92.22Z"/>
      <g>
        <path class="cls-3" d="M1546.39,907.97c-72.98,58.38-68.13,133.29-68.13,133.29-7.79,6.69-14.51,11-20.25,13.5-2.05-30.73-.24-82.54,25.78-131.64,11.76-22.18,28.78-57.04,42.19-84.99-2.57,10.39.04.22.04.22,32.11-16.53,93.35,11.24,20.37,69.62Z"/>
        <path class="cls-11" d="M1532.3,799.63c-1.29,20.15-6.89,39.78-15.7,57.95-11.34,23.37-23.66,48.29-32.81,65.54-26.03,49.09-27.83,100.9-25.78,131.64-4.74,2.08-8.8,2.93-12.34,2.93-8.37,0-13.66-4.86-16.92-10.17-4-6.48-5.01-13.66-5.01-13.66-40.91-111.51-12.59-276.69,63.3-289.33,39.84-6.64,47.24,24.25,45.27,55.1Z"/>
        <path class="cls-7" d="M1526.63,759.16s-31.74,28.62-20.82,38.97c7.53,7.14,26.52-10.25,26.52-10.25"/>
        <path class="cls-7" d="M1404.99,930.85s10.5,13.07,15.93,6.63c6.2-7.36-14.41-42.71-14.41-42.71"/>
        <path class="cls-7" d="M1484.64,779.77s-66.93,126.14-43.76,256.56"/>
        <path class="cls-11" d="M1418.04,1033.86h73.78c3.88,0,7.03,3.15,7.03,7.03v60.25h-87.83v-60.25c0-3.88,3.15-7.03,7.03-7.03Z"/>
      </g>
    </g>
    <path class="cls-7" d="M1523.3,931.09s-18.9,12.36-27.99,32.25"/>
  </g>
  <g>
    <g>
      <line class="cls-11" x1="1591.41" y1="1101.33" x2="1" y2="1101.33"/>
      <g>
        <line class="cls-11" x1="2.5" y1="291.8" x2="887.32" y2="291.8"/>
        <line class="cls-11" x1="45.49" y1="1098.07" x2="45.49" y2="5.9"/>
        <line class="cls-11" x1="335.7" y1="598.38" x2="335.7" y2="6.49"/>
        <line class="cls-11" x1="627.2" y1="381.22" x2="627.2" y2="5.66"/>
      </g>
    </g>
    <line class="cls-11" x1="697.51" y1="854.88" x2="49.53" y2="854.88"/>
  </g>
  <g>
    <path class="cls-6" d="M697.03,258.59s-4.5-31.02-36.86-16.51"/>
    <path class="cls-2" d="M701.87,273.82s-2.55-30.96-31.53-33.41c-36.59-3.1-39.82,40.61-26.81,66.24,0,0,16.98,7.96,26.13-11.42,5.87-12.42-.51-24.73,4.89-27.6,17.12-9.11,17.07,18.02,17.07,18.02l10.25-11.83Z"/>
    <path class="cls-11" d="M683.71,270.16c0-6.34,5.54-11.47,12.38-11.47s12.38,5.14,12.38,11.47-5.54,11.47-12.38,11.47-12.38-5.14-12.38-11.47Z"/>
    <rect class="cls-7" x="643.28" y="735.08" width="234.2" height="420.64"/>
    <rect class="cls-7" x="604.04" y="733.58" width="234.2" height="422.12"/>
    <path class="cls-4" d="M901.35,769.96h-275.12c-23.23,0-42.06-18.83-42.06-42.06h0c0-23.23,18.83-42.06,42.06-42.06h275.12c23.23,0,42.06,18.83,42.06,42.06h0c0,23.23-18.83,42.06-42.06,42.06Z"/>
    <path class="cls-11" d="M905.68,1040.87h-162.29s-2.94-16.6-4.11-43.79c-2.42-57.45,3.06-162.21,60.96-257.13,0,0-162.29,13.05-151.61-107.77,2.58-29.13,13.34-46.53,28.24-56.2,46.98-30.5,134.77,15.87,134.77,15.87,0,0,96.7,15.99,136.14,58.22,62.17,66.6-16.04,214.3-78.85,288.92,0,0-10.8,14.26-10.19,32.07.36,11.68,5.6,24.86,22.04,36.62,41.5,29.61,24.9,33.2,24.9,33.2Z"/>
    <path class="cls-11" d="M857.36,1040.35l-158.45.52c-5.52,0-10.15-4.15-10.84-9.63-1.17-9.51-2.7-25.62-3.1-46.41-1.01-55.6,6.33-144.44,51.81-228.32,3.91-7.21-1.05-16.04-9.27-16.2-42.38-.85-141.26-13.01-132.84-108.14,5.4-61.08,59.5-70.28,97.01-60.33,30.94,8.1,159.9,38.27,196.35,74.55,56.5,56.22-13.6,205.25-68.21,290.26,0,0-13.6,18.96-10.66,38.9,1.49,10.43,3.39,21.89,17.69,32.12,41.46,29.61,30.49,32.68,30.49,32.68Z"/>
    <path class="cls-11" d="M993.3,582.74s-25.37-41.74-87.56-50.74c-52.32-7.57-95.37-77.1-107.72-98.99-6.07-12.41-13.97-22.96-25.03-30.59-31.18-21.55-62.17-18.22-87.22-20.92-70.1-7.56-104.99,1.64-151.48,100.29-7.95,16.88-17.64,60.15-14.04,76.33,13.94,62.74,60.52,32.96,60.52,32.96,0,0,45.54,5.39,115.05,6.59,67.78,1.17,112.64,6.56,165-12.3,0,0-68.25,23.43-75.03,0l207.52-2.63Z"/>
    <path class="cls-2" d="M755.93,311.1s11.04-26.81-12.22-42.19c-8.24-5.45-26.13-7.18-42.92-3.56-30.61,6.6-57.57,31.01-15.82,83.2l70.97-37.45Z"/>
    <path class="cls-11" d="M756.87,571.81s20.55-8.22,19.34,7.01"/>
    <path class="cls-10" d="M757.16,465.78s11.74,19.65,6.37,41.13c-5.37,21.48-18.23,59.67-14.17,82.03"/>
    <path class="cls-11" d="M713.82,550.41s-97.76-45.01-141.45-24.03"/>
    <path class="cls-11" d="M629.6,476.27s-14.48,11.88-22.47,42.92"/>
    <path class="cls-5" d="M734.48,306.27c10.85-2.29,22.55-.81,19.84,11.67-1.74,8.05-1.49,10.2-2.9,22.78-3.03,26.9-25.47,37.97-46.2,22.46-21.08-15.77-22.56-28.14-10.81-56.95,8.63-21.15,18.26-8.92,18.26-8.92,0,0,5.29,12.44,21.8,8.96Z"/>
    <path class="cls-4" d="M748.52,326.57c-.73,1.95-2.1,3.23-3.06,2.87-.96-.36-1.16-2.23-.43-4.17.73-1.95,2.1-3.23,3.06-2.87.96.36,1.16,2.23.43,4.17Z"/>
    <path class="cls-4" d="M723.23,321.76c-.23,2.04-1.27,3.68-2.32,3.66-1.05-.01-1.71-1.68-1.48-3.72.23-2.04,1.27-3.68,2.32-3.66,1.05.01,1.71,1.68,1.48,3.72Z"/>
    <path class="cls-5" d="M722.43,370.33s-6.55,10.92-3.12,23.58c0,0-1.42,21.47-14.79,39.37-3.99,5.34-12.21,4.69-15.49-1.12-6.97-12.35-16.68-33.36-14.69-51.7,0,0,10.4-26.1,12.41-43.41,0,0,33.83,30.24,35.67,33.28Z"/>
    <path class="cls-4" d="M722.43,370.33s-11.71-1.82-21.39-12.22c-9.68-10.4-1.62,18.68,17.85,24.88,0,0-.2-4.82,3.54-12.65Z"/>
    <path class="cls-4" d="M744.45,314.32s5.87,1.08,9.14,4.73c3.27,3.65-2.29-12.53-9.14-4.73Z"/>
    <path class="cls-4" d="M728.38,313.49s-10.82-.38-13.7,1.41c-2.88,1.8,8.21-10.97,13.7-1.41Z"/>
    <path class="cls-5" d="M695.26,323.63s-3.73-9.13-10.74-10.26c-7.01-1.13-9.37,20.3,5.67,21.45,15.04,1.15,5.07-11.19,5.07-11.19Z"/>
    <path class="cls-7" d="M689.54,324.59s-.08-5.64-5.07-6.88"/>
    <path class="cls-6" d="M690.47,316.67s16.36-2.67,24.96-25.7c8.6-23.03-35.31-9.33-24.96,25.7Z"/>
    <path class="cls-7" d="M722.2,371.54c-1.84,4.93-3.82,15.86-3.29,21.74.23,2.56-3.99,11.93-20.93,7.88-20.43-4.89-24.09-21.33-24.09-21.33,10.06-18.65,12.78-45.83,12.78-45.83"/>
    <path class="cls-7" d="M754.8,311.29c.69,45.55-17.78,64.98-36.13,58.67"/>
    <path class="cls-7" d="M719.7,347.75s-3.38,5.46,4.7,9.02"/>
    <path class="cls-11" d="M692.73,586.83s1.63-29.37,22.03-36.71c0,0,32.46.29,57.81-8.37,25.36-8.66,38.96,40.82,38.96,40.82,0,0-4.58,5-15.46-5.86-2.14-2.13-5.74-.05-5.03,2.88l1.32,5.45"/>
    <path class="cls-11" d="M758.08,564.07s9.67-8.95,15.96-10.16c6.29-1.21,15.52,15.23,15.52,15.23"/>
    <g>
      <path class="cls-4" d="M858.34,581.94h201.98c3.24,0,5.97-2.41,6.37-5.62l15.59-124.71c.48-3.83-2.51-7.21-6.37-7.21h-201.98c-3.24,0-5.97,2.41-6.37,5.62l-15.59,124.71c-.48,3.83,2.51,7.21,6.37,7.21Z"/>
      <path class="cls-8" d="M961.58,523.26c2.63,3.74,9.38,3.52,15.09-.49,5.71-4.01,8.2-10.29,5.58-14.03-2.63-3.74-9.38-3.52-15.09.49-5.71,4.01-8.2,10.29-5.58,14.03Z"/>
      <rect class="cls-4" x="732.01" y="572.77" width="166.64" height="9.32" rx="2.57" ry="2.57"/>
    </g>
    <path class="cls-11" d="M798.34,552.8s36.71,14.06,38.27,19.92"/>
    <path class="cls-11" d="M767.98,439s7.58,28.23,14.48,42.8c11.33,23.92-2.52,56.65-2.52,56.65"/>
    <path class="cls-6" d="M690.47,316.67s22.48,10.79,22.7-23.17"/>
    <ellipse class="cls-6" cx="670.47" cy="448.73" rx="9.44" ry="10.92" transform="translate(-53.38 805) rotate(-60)"/>
    <path class="cls-5" d="M684.97,984.83c11.85.04,28.53,2.1,47.98,10.11,2.14.89,4.23,1.61,6.33,2.14,30.18,8.22,57.41-13.58,65.95-21.39,1.81-1.65,2.78-2.66,2.78-2.66,0,0,31.22,22.88,50.24-1.49.12-.16.28-.32.48-.48.36,11.68,5.6,24.86,22.04,36.62,41.5,29.61,24.9,33.2,24.9,33.2h-206.77c-5.52,0-10.15-4.15-10.84-9.63-1.17-9.51-2.7-25.62-3.1-46.41"/>
    <path class="cls-11" d="M684.97,985.64c11.85.04,28.53,2.1,47.98,10.11,2.14.89,4.23,1.61,6.33,2.14,30.18,8.22,57.41-13.58,65.95-21.39,1.81-1.65,2.78-2.66,2.78-2.66,0,0,31.22,22.88,50.24-1.49.12-.16.28-.32.48-.48.36,11.68,5.6,24.86,22.04,36.62,41.5,29.61,24.9,33.2,24.9,33.2h-206.77c-5.52,0-10.15-4.15-10.84-9.63-1.17-9.51-2.7-25.62-3.1-46.41"/>
    <line class="cls-7" x1="876.31" y1="1041.78" x2="604.3" y2="1041.78"/>
    <path class="cls-4" d="M788.7,989.6s18.58,37.54,47.87,23.09c0,0-25.01-17.4-27.12-41.77,0,0-15.07-5.63-20.75,18.68Z"/>
    <path class="cls-4" d="M843.91,983.54s6.88,36.63,34.81,23.88c0,0-15.66-11.25-18.75-38.02,0,0-16.67-6.71-16.06,14.14Z"/>
    <path class="cls-9" d="M661.04,628.33c0,3.74-4.91,6.77-10.97,6.77s-10.97-3.03-10.97-6.77,4.91-6.77,10.97-6.77,10.97,3.03,10.97,6.77Z"/>
    <path class="cls-9" d="M864.19,708.33c-3.34,1.68-8.26-1.34-10.98-6.75-2.72-5.41-2.22-11.16,1.12-12.84,3.34-1.68,8.26,1.34,10.98,6.75,2.72,5.41,2.22,11.16-1.12,12.84Z"/>
    <path class="cls-9" d="M942.04,687.18c-3.34,1.68-8.26-1.34-10.98-6.75-2.72-5.41-2.22-11.16,1.12-12.84,3.34-1.68,8.26,1.34,10.98,6.75,2.72,5.41,2.22,11.16-1.12,12.84Z"/>
    <path class="cls-9" d="M747.75,940.05c-3.34,1.68-8.26-1.34-10.98-6.75-2.72-5.41-2.22-11.16,1.12-12.84s8.26,1.34,10.98,6.75c2.72,5.41,2.22,11.16-1.12,12.84Z"/>
    <path class="cls-9" d="M766.31,662.7c2.36,2.9.46,8.35-4.24,12.17-4.7,3.82-10.42,4.56-12.78,1.66s-.46-8.35,4.24-12.17c4.7-3.82,10.42-4.56,12.78-1.66Z"/>
    <path class="cls-9" d="M876.37,897.75c2.36,2.9.46,8.35-4.24,12.17-4.7,3.82-10.42,4.56-12.78,1.66s-.46-8.35,4.24-12.17c4.7-3.82,10.42-4.56,12.78-1.66Z"/>
    <path class="cls-9" d="M928.24,799.22c2.36,2.9.46,8.35-4.24,12.17-4.7,3.82-10.42,4.56-12.78,1.66s-.46-8.35,4.24-12.17c4.7-3.82,10.42-4.56,12.78-1.66Z"/>
    <path class="cls-9" d="M811.97,803.1c2.36,2.9.46,8.35-4.24,12.17-4.7,3.82-10.42,4.56-12.78,1.66-2.36-2.9-.46-8.35,4.24-12.17,4.7-3.82,10.42-4.56,12.78-1.66Z"/>
    <line class="cls-11" x1="688.57" y1="1027.6" x2="902.7" y2="1027.6"/>
    <path class="cls-4" d="M775.68,462.95s20.53,34.88,22.88,58.32c1.86,18.6,0,30.87,0,30.87,0,0-12.49-12.95-20.71-12.11,0,0,13.87-28.32-2.17-77.07Z"/>
    <path class="cls-4" d="M625.42,482.67s-10.59,14.23-1.99,39.05l-16.53-.35s3.11-25.56,18.52-38.69Z"/>
    <path class="cls-7" d="M836.56,1012.7s27.23,10.9,29.75,29.41"/>
  </g>
  <g>
    <line class="cls-7" x1="532.49" y1="603.04" x2="532.49" y2="1156.35"/>
    <path class="cls-6" d="M1574.57,602.02H453.28c-5.64,0-10.21-4.57-10.21-10.21h0c0-5.64,4.57-10.21,10.21-10.21h1121.29c5.64,0,10.21,4.57,10.21,10.21h0c0,5.64-4.57,10.21-10.21,10.21Z"/>
  </g>
</svg>